<?xml version="1.0" encoding="UTF-8" standalone="no"?>
<svg
   xmlns:dc="http://purl.org/dc/elements/1.1/"
   xmlns:cc="http://creativecommons.org/ns#"
   xmlns:rdf="http://www.w3.org/1999/02/22-rdf-syntax-ns#"
   xmlns:svg="http://www.w3.org/2000/svg"
   xmlns="http://www.w3.org/2000/svg"
   xmlns:sodipodi="http://sodipodi.sourceforge.net/DTD/sodipodi-0.dtd"
   xmlns:inkscape="http://www.inkscape.org/namespaces/inkscape"
   viewBox="0 0 20 20"
   version="1.1"
   id="svg850"
   sodipodi:docname="tmdb.svg"
   width="20"
   height="20"
   inkscape:version="1.0 (4035a4f, 2020-05-01)">
  <metadata
     id="metadata854">
    <rdf:RDF>
      <cc:Work
         rdf:about="">
        <dc:format>image/svg+xml</dc:format>
        <dc:type
           rdf:resource="http://purl.org/dc/dcmitype/StillImage" />
        <dc:title>Asset 2</dc:title>
      </cc:Work>
    </rdf:RDF>
  </metadata>
  <sodipodi:namedview
     inkscape:document-rotation="0"
     pagecolor="#ffffff"
     bordercolor="#666666"
     borderopacity="1"
     objecttolerance="10"
     gridtolerance="10"
     guidetolerance="10"
     inkscape:pageopacity="0"
     inkscape:pageshadow="2"
     inkscape:window-width="1441"
     inkscape:window-height="686"
     id="namedview852"
     showgrid="false"
     inkscape:zoom="3.5113541"
     inkscape:cx="95.12"
     inkscape:cy="40.76"
     inkscape:window-x="63"
     inkscape:window-y="37"
     inkscape:window-maximized="0"
     inkscape:current-layer="svg850" />
  <defs
     id="defs842">
    <style
       id="style833">.cls-1{fill:url(#linear-gradient);}</style>
    <linearGradient
       id="linear-gradient"
       y1="40.759998"
       x2="190.24001"
       y2="40.759998"
       gradientUnits="userSpaceOnUse">
      <stop
         offset="0"
         stop-color="#90cea1"
         id="stop835" />
      <stop
         offset="0.56"
         stop-color="#3cbec9"
         id="stop837" />
      <stop
         offset="1"
         stop-color="#00b3e5"
         id="stop839" />
    </linearGradient>
  </defs>
  <title
     id="title844">Asset 2</title>
  <g
     id="Layer_2"
     data-name="Layer 2"
     transform="matrix(0.10513036,0,0,0.1718213,0,3)">
    <g
       id="Layer_1-2"
       data-name="Layer 1">
      <path
         class="cls-1"
         d="m 105.67,36.06 h 66.9 A 17.67,17.67 0 0 0 190.24,18.4 v 0 A 17.67,17.67 0 0 0 172.57,0.73 h -66.9 A 17.67,17.67 0 0 0 88,18.4 v 0 a 17.67,17.67 0 0 0 17.67,17.66 z m -88,45 h 76.9 A 17.67,17.67 0 0 0 112.24,63.4 v 0 A 17.67,17.67 0 0 0 94.57,45.73 H 17.67 A 17.67,17.67 0 0 0 0,63.4 v 0 A 17.67,17.67 0 0 0 17.67,81.06 Z M 10.41,35.42 h 7.8 V 6.92 h 10.1 V 0 h -28 v 6.9 h 10.1 z m 28.1,0 h 7.8 V 8.25 h 0.1 l 9,27.15 h 6 l 9.3,-27.15 h 0.1 V 35.4 h 7.8 V 0 H 66.76 l -8.2,23.1 h -0.1 L 50.31,0 h -11.8 z m 113.92,20.25 a 15.07,15.07 0 0 0 -4.52,-5.52 18.57,18.57 0 0 0 -6.68,-3.08 33.54,33.54 0 0 0 -8.07,-1 h -11.7 v 35.4 h 12.75 a 24.58,24.58 0 0 0 7.55,-1.15 19.34,19.34 0 0 0 6.35,-3.32 16.27,16.27 0 0 0 4.37,-5.5 16.91,16.91 0 0 0 1.63,-7.58 18.5,18.5 0 0 0 -1.68,-8.25 z M 145,68.6 a 8.8,8.8 0 0 1 -2.64,3.4 10.7,10.7 0 0 1 -4,1.82 21.57,21.57 0 0 1 -5,0.55 h -4.05 v -21 h 4.6 a 17,17 0 0 1 4.67,0.63 11.66,11.66 0 0 1 3.88,1.87 9.14,9.14 0 0 1 2.54,3.13 9.87,9.87 0 0 1 1,4.52 11.89,11.89 0 0 1 -1,5.08 z m 44.63,-0.13 a 8,8 0 0 0 -1.58,-2.62 8.38,8.38 0 0 0 -2.42,-1.85 10.31,10.31 0 0 0 -3.17,-1 v -0.1 a 9.22,9.22 0 0 0 4.42,-2.82 7.43,7.43 0 0 0 1.68,-5 8.42,8.42 0 0 0 -1.15,-4.65 8.09,8.09 0 0 0 -3,-2.72 12.56,12.56 0 0 0 -4.18,-1.3 32.84,32.84 0 0 0 -4.62,-0.33 h -13.2 v 35.4 h 14.5 a 22.41,22.41 0 0 0 4.72,-0.5 13.53,13.53 0 0 0 4.28,-1.65 9.42,9.42 0 0 0 3.1,-3 8.52,8.52 0 0 0 1.2,-4.68 9.39,9.39 0 0 0 -0.55,-3.18 z M 170.21,52.72 h 5.3 a 10,10 0 0 1 1.85,0.18 6.18,6.18 0 0 1 1.7,0.57 3.39,3.39 0 0 1 1.22,1.13 3.22,3.22 0 0 1 0.48,1.82 3.63,3.63 0 0 1 -0.43,1.8 3.4,3.4 0 0 1 -1.12,1.2 4.92,4.92 0 0 1 -1.58,0.65 7.51,7.51 0 0 1 -1.77,0.2 h -5.65 z m 11.72,20 a 3.9,3.9 0 0 1 -1.22,1.3 4.64,4.64 0 0 1 -1.68,0.7 8.18,8.18 0 0 1 -1.82,0.2 h -7 v -8 h 5.9 a 15.35,15.35 0 0 1 2,0.15 8.47,8.47 0 0 1 2.05,0.55 4,4 0 0 1 1.57,1.18 3.11,3.11 0 0 1 0.63,2 3.71,3.71 0 0 1 -0.43,1.92 z"
         id="path846"
         style="fill:url(#linear-gradient)" />
    </g>
  </g>
</svg>
